# xmcd
#
# Track frame offsets:
#	150
#	11301
#	24449
#	39213
#	49749
#	61021
#	75359
#	88998
#	102123
#	115924
#
# Disc length: 1659 seconds
#
# Revision: 1
# Processed by: cddbd v1.5.2PL0 Copyright (c) Steve Scherf et al.
# Submitted via: audiograbber 1.83.01
#
DISCID=6506790a
DTITLE=Various Artist - Classic Country Christmas
DYEAR=2003
DGENRE=Holiday
TTITLE0=Chely Wright - Let it Snow! Let is Snow! Let is Snow!
TTITLE1=Steve Wariner - The Most Wonderful Time of the Year
TTITLE2=Sammy Kershaw - Chrostmas Time's a Comin'
TTITLE3=Statler Brothers - White Christmas
TTITLE4=Freddy Fender - Pretty Paper
TTITLE5=Mark Chesnutt - Light of the World
TTITLE6=Lee Greenwood - O Holy Night
TTITLE7=Johnny Cash - Peace in the Valley
TTITLE8=Oak Ridge Boys - That's What I Like About Christmas
TTITLE9=Loretta Lynn - Frosty the Snowman
EXTD=(c) 2003 Universal Music Enterprises
EXTT0=
EXTT1=
EXTT2=
EXTT3=
EXTT4=
EXTT5=
EXTT6=
EXTT7=
EXTT8=
EXTT9=
PLAYORDER=
